<?xml version="1.0" encoding="UTF-8"?>
<!-- Generator: Adobe Illustrator 25.3.1, SVG Export Plug-In . SVG Version: 6.00 Build 0)  -->
<svg xmlns="http://www.w3.org/2000/svg" xmlns:xlink="http://www.w3.org/1999/xlink" version="1.1" id="Layer_1" x="0px" y="0px" viewBox="0 0 300 55.4" style="enable-background:new 0 0 300 55.4;" xml:space="preserve">
<style type="text/css">
	.st0{fill:#E7008F;}
</style>
<path d="M14.9,24.5l0.9-2.4l7.8,0c0.8-1.5,1.6-3.3,2.6-5.1c1-1.9,2.2-3.6,3.6-5.1c1.5-1.6,3.3-3,5.3-4c2-1.1,4.6-1.6,7.6-1.6  c0.9,0,1.7,0.1,2.6,0.2c0.9,0.1,1.8,0.4,2.6,0.7c0.7,0.3,1.4,0.7,2,1.3c0.5,0.5,0.8,1.1,0.8,1.8c0,0.7-0.4,1.4-0.9,1.8  c-0.6,0.4-1.5,0.7-2.8,0.7c-1.5,0-2.6-0.2-3-0.7c-0.5-0.4-0.8-1-1-1.6c-0.2-0.6-0.4-1.1-0.7-1.6c-0.3-0.5-0.9-0.7-2.1-0.7  c-0.9,0-1.8,0.3-2.5,0.9c-0.8,0.6-1.5,1.4-2.1,2.2c-0.6,0.9-1.2,1.9-1.6,3c-0.5,1.1-0.8,2.1-1.2,3.2c-0.4,1-0.7,2-0.9,2.8  c-0.2,0.7-0.4,1.3-0.7,1.9l7.9,0l-0.9,2.4l-7.9,0.1l-3.1,8.8c-0.9,2.5-1.9,5-3.1,7.7c-1.1,2.6-2.5,5-4.2,7.2  c-1.6,2.1-3.6,3.9-5.9,5.3c-2.2,1.4-4.9,2.1-7.9,2.1c-0.8,0-1.5-0.1-2.2-0.2c-0.7-0.1-1.4-0.3-2-0.6c-0.5-0.2-1-0.6-1.4-1  C0.2,53.3,0,52.8,0,52.2c0-0.7,0.4-1.3,1-1.6c0.7-0.5,1.6-0.7,2.5-0.6c0.8,0,1.6,0.1,2.3,0.5c0.6,0.3,1.1,0.7,1.6,1.1  c0.5,0.4,0.9,0.7,1.4,1.1c0.5,0.3,1,0.5,1.6,0.5c0.4,0,0.9-0.1,1.3-0.3c0.4-0.2,0.7-0.5,1-0.8c0.3-0.4,0.5-0.7,0.7-1.1  c0.2-0.4,0.4-0.8,0.6-1.2c1.5-4,2.9-8.1,4.1-12.4c1.2-4.3,2.7-8.6,4.4-12.7L14.9,24.5z M60.1,37.4c-0.9,1-2,2-3,3  c-1.1,1-2.3,2-3.5,2.8c-1.3,0.9-2.8,1.6-4.3,2.1c-1.7,0.5-3.5,0.8-5.2,0.8c-3.6,0-6.4-0.7-8.1-2c-1.7-1.3-2.7-3.3-2.7-5.5  c0.1-2.1,0.7-4.1,1.9-5.9c1.4-2.2,3.1-4.1,5.1-5.7c2.2-1.8,4.7-3.2,7.4-4.3c2.7-1.1,5.6-1.7,8.5-1.7c1,0,2,0.1,2.9,0.3  c0.9,0.2,1.8,0.5,2.6,0.9c0.7,0.3,1.3,0.8,1.8,1.4c0.5,0.5,0.7,1.2,0.7,1.9c0,1.5-0.8,2.8-2.4,4c-1.8,1.3-3.8,2.3-5.8,3  c-2.3,0.9-4.7,1.6-7.1,2.2c-2.4,0.6-4.5,1.1-6.2,1.5c-0.3,0.7-0.5,1.4-0.7,2.1c-0.2,0.7-0.3,1.5-0.3,2.2c0,0.9,0.4,1.7,1.1,2.2  c0.7,0.6,1.9,0.8,3.4,0.8c1.2,0,2.3-0.3,3.4-0.8c1.2-0.5,2.3-1.1,3.4-1.9c1-0.7,2-1.5,2.9-2.3c0.9-0.8,1.6-1.5,2.1-2L60.1,37.4z   M47.7,33.1c1.5-0.6,2.9-1.3,4.2-2.1c1.2-0.7,2.3-1.6,3.1-2.8c0.8-0.9,1.2-2.1,1.2-3.3c0-0.7-0.3-1.3-0.9-1.8  c-0.7-0.5-1.5-0.7-2.3-0.7c-0.9,0-1.8,0.2-2.5,0.7c-0.8,0.5-1.5,1.1-2.2,1.8c-0.7,0.8-1.3,1.6-1.9,2.5c-0.6,0.9-1,1.8-1.5,2.7  c-0.5,0.8-0.8,1.7-1.1,2.5c-0.3,0.8-0.6,1.4-0.8,1.9C44.7,34.1,46.3,33.7,47.7,33.1z M65.8,45.4l7.3-17.6c0.1-0.4,0.3-0.8,0.6-1.3  c0.2-0.4,0.3-0.8,0.3-1.3c0-0.4-0.4-0.7-1-0.7c-0.7,0.1-1.3,0.4-1.8,0.8c-0.8,0.5-1.5,1.1-2.2,1.8c-0.7,0.7-1.4,1.4-2.1,2  s-1.1,1.2-1.4,1.4l-1.7-0.7c0.9-0.8,1.7-1.7,2.4-2.6c0.9-1.1,1.9-2,3-2.9c1.1-0.9,2.3-1.7,3.6-2.4c1.3-0.7,2.7-1,4.1-1  c1.4,0,2.4,0.3,3.2,0.9c0.7,0.5,1.1,1.3,1.1,2.1c0,0.9-0.2,1.7-0.5,2.5c-0.4,1-0.8,2.1-1.3,3.2c-0.5,1.1-0.9,2.1-1.4,3.2  c-0.4,0.8-0.7,1.7-0.9,2.6h0.1c0.4-0.6,0.9-1.4,1.6-2.3c0.7-0.9,1.4-2,2.1-3c0.7-1.1,1.6-2.1,2.6-3.2c0.9-1.1,1.9-2,3-2.9  c1-0.8,2.2-1.6,3.4-2.1c1.2-0.6,2.4-0.8,3.7-0.8c1.2,0,2.3,0.3,3.4,0.9c1,0.4,1.6,1.4,1.6,2.4c0,0.9-0.5,1.7-1.2,2.2  c-0.9,0.6-2,1-3.1,0.9c-0.7,0-1.5-0.1-2.2-0.3c-0.5-0.2-0.9-0.5-1.3-0.8c-0.3-0.3-0.6-0.6-0.9-0.8c-0.4-0.3-0.8-0.4-1.3-0.3  c-0.6,0-1.3,0.4-2.1,1.1c-1,0.9-1.9,1.9-2.8,2.9c-1,1.2-2,2.5-3,4c-1,1.4-2,2.9-2.9,4.4c-0.9,1.5-1.8,2.9-2.6,4.3s-1.4,2.6-1.8,3.5  H65.8z M136.8,37.4c-0.7,0.8-1.4,1.7-2.4,2.7c-0.9,1-1.9,1.9-3,2.8c-1.1,0.9-2.3,1.6-3.6,2.2c-1.3,0.6-2.7,0.9-4.2,0.9  c-1,0-2-0.1-2.9-0.5c-0.8-0.2-1.3-0.9-1.3-1.7c0.1-0.8,0.2-1.7,0.6-2.5c0.4-1.1,0.8-2.2,1.4-3.5s1.2-2.6,1.9-4s1.3-2.6,1.9-3.8  c0.6-1.2,1-2.2,1.4-3c0.3-0.5,0.4-1,0.6-1.6c0.1-0.4-0.1-0.9-0.5-1.1c-0.4-0.2-0.9-0.2-1.4-0.2c-0.9,0-2,0.5-3.2,1.4  c-1.3,1-2.5,2.2-3.6,3.5c-1.3,1.5-2.6,3-3.7,4.6c-1.2,1.7-2.3,3.3-3.3,4.8c-1,1.5-1.8,3-2.5,4.2c-0.5,0.9-0.9,1.8-1.3,2.7h-7.6l7-17  c0.2-0.5,0.4-1,0.7-1.7c0.2-0.5,0.3-1,0.4-1.5c0-0.7-0.5-1-1.4-1c-0.7,0.1-1.4,0.4-2,0.9c-0.8,0.6-1.5,1.3-2.2,2  c-0.7,0.7-1.4,1.4-2,2.2c-0.4,0.5-0.9,1-1.4,1.5l-1.8-0.7c0.7-0.7,1.4-1.6,2.3-2.7c0.9-1.1,1.9-2.1,2.9-3c1.1-1,2.2-1.8,3.5-2.5  c1.2-0.7,2.6-1,4-1.1c0.7,0,1.4,0.1,2.1,0.3c0.5,0.2,0.9,0.5,1.3,0.9c0.3,0.4,0.6,0.8,0.7,1.3c0.1,0.5,0.2,1,0.2,1.5  c0,0.8-0.1,1.6-0.3,2.3c-0.2,1-0.4,1.9-0.7,2.8c-0.3,1-0.6,1.9-0.9,2.8c-0.3,0.9-0.5,1.6-0.7,2.1h0.1c0.4-0.7,0.9-1.4,1.6-2.4  c0.7-1,1.4-2,2.2-3c0.8-1.1,1.8-2.1,2.8-3.1c1-1,2-1.9,3.2-2.8c1.1-0.8,2.2-1.5,3.5-2c1.2-0.5,2.4-0.8,3.6-0.8  c2.1,0,3.5,0.4,4.3,1.2c0.8,0.8,1.3,2,1.3,3.1c0,0.8-0.2,1.6-0.5,2.4c-0.4,1-0.8,2-1.3,3.1c-0.5,1.1-1.1,2.3-1.7,3.5  c-0.7,1.2-1.2,2.3-1.7,3.3c-0.5,1-0.9,1.9-1.3,2.7c-0.3,0.5-0.4,1-0.5,1.6c0,0.5,0.4,0.7,1,0.7c0.7-0.1,1.3-0.3,1.9-0.7  c0.7-0.5,1.4-1,2.1-1.6c0.7-0.6,1.3-1.2,1.9-1.9c0.6-0.6,1-1.1,1.3-1.4L136.8,37.4z M193.7,30.4c-0.7,1.6-1.7,3.1-2.8,4.5  c-1.3,1.6-2.7,3-4.2,4.2c-1.6,1.4-3.4,2.5-5.3,3.5c-1.9,1-3.9,1.8-6,2.4c-2,0.6-4.2,0.9-6.3,0.9c-1.7,0-3.5-0.3-5.1-1  c-1.4-0.5-2.6-1.5-3.5-2.7c-2.1,1-4.2,1.9-6.3,2.6c-2.3,0.8-4.7,1.1-7.2,1.1c-2.4,0-4.4-0.5-5.9-1.5s-2.3-2.4-2.3-4  c0-1.4,0.5-2.8,1.4-4c1-1.4,2.1-2.7,3.4-3.8c1.3-1.3,2.7-2.5,4.1-3.6c1.3-1,2.5-2.1,3.6-3.4c-1,0-2.1-0.1-3.1-0.3  c-0.9-0.2-1.7-0.4-2.6-0.6c-0.7-0.2-1.4-0.4-1.8-0.6c-0.3-0.1-0.6-0.2-1-0.3c-0.7,0-1,0.2-1,0.7c0,0.3,0.1,0.5,0.3,0.7  c0.2,0.2,0.5,0.5,0.7,0.7c0.3,0.2,0.5,0.5,0.7,0.8c0.2,0.3,0.3,0.6,0.3,0.9c0,0.6-0.3,1.1-0.7,1.4c-0.6,0.3-1.3,0.5-2.1,0.5  c-0.5,0-1-0.1-1.4-0.3c-0.4-0.2-0.7-0.5-0.9-0.8c-0.2-0.3-0.4-0.6-0.5-1c-0.1-0.3-0.2-0.6-0.2-0.9c0-0.9,0.2-1.8,0.7-2.5  c0.6-0.8,1.3-1.4,2.1-1.9c1-0.6,2-1,3.1-1.2c1.2-0.3,2.4-0.4,3.6-0.4c0.7,0,1.3,0,1.9,0c0.6,0,1.2,0,1.8,0.1  c0.6,0.1,1.2,0.1,1.8,0.1c0.7,0,1.3,0,1.8,0c0.8,0,1.6,0,2.3-0.1c0.7-0.1,1.4-0.2,2-0.3c-0.5,0.6-1.1,1.3-1.9,2.2s-1.7,1.8-2.6,2.8  s-1.9,2.1-2.9,3.2c-1,1.1-1.9,2.2-2.7,3.2c-0.7,0.9-1.4,1.9-1.9,2.9c-0.4,0.7-0.6,1.5-0.7,2.4c0,1.2,0.6,2.4,1.6,3.1  c1,0.8,2.5,1.2,4.4,1.2c1.2,0,2.4-0.2,3.6-0.6c1.1-0.4,2.2-0.7,3.3-1.2c-0.1-0.6-0.2-1.1-0.3-1.7l-0.1-1.7c0-0.9,0.1-1.8,0.3-2.8  c0.3-1.2,0.6-2.3,1.1-3.4c0.5-1.2,1.1-2.4,1.9-3.5c0.7-1.1,1.6-2.2,2.5-3.2c0.9-0.9,2-1.7,3.1-2.3c1.1-0.6,2.4-0.9,3.7-0.9  c1.9,0,3.1,0.4,3.9,1.3c0.7,0.8,1.1,1.9,1.1,2.9c0,1.3-0.3,2.5-0.9,3.6c-0.7,1.3-1.5,2.5-2.4,3.5c-1,1.2-2.1,2.2-3.3,3.2  c-1.2,1-2.3,2-3.4,2.8c1.9,2.3,4.9,3.5,9,3.5c1.7,0,3.4-0.3,4.9-0.9c1.5-0.6,2.8-1.4,4.1-2.4c1.1-0.9,2-2,2.8-3.2c0.7-1,1-2.2,1-3.5  c0-0.8-0.2-1.7-0.5-2.5c-0.3-0.7-0.6-1.4-1-2c-0.4-0.6-0.7-1.2-1-1.8c-0.3-0.5-0.5-1.2-0.5-1.8c0-0.8,0.3-1.6,1-2.1  c0.8-0.6,1.8-0.9,2.8-0.8c0.9,0,1.8,0.2,2.7,0.5c0.7,0.3,1.3,0.8,1.7,1.4c0.4,0.6,0.7,1.2,0.9,1.9c0.2,0.6,0.3,1.2,0.3,1.9  C194.7,27.5,194.4,29,193.7,30.4z M171.9,26.6c-0.1-0.8-0.5-1.4-1.2-1.9c-0.4-0.3-0.9-0.4-1.4-0.3c-0.9,0-1.8,0.3-2.5,0.8  c-0.6,0.5-1.2,1.2-1.5,2c-0.3,0.8-0.6,1.6-0.7,2.4c-0.1,0.6-0.2,1.3-0.2,2c0,0.8,0.1,1.5,0.2,2.2c0.2,0.8,0.4,1.5,0.8,2.2  c0.8-0.5,1.6-1.1,2.3-1.7c0.8-0.6,1.5-1.3,2.1-2.1c0.6-0.7,1.1-1.4,1.5-2.2c0.4-0.7,0.6-1.5,0.6-2.4  C171.9,27.2,171.9,26.9,171.9,26.6z M218.3,21.2c1.4,0.5,2.6,1.3,3.6,2.4c0.9,0.9,1.6,2.1,2.1,3.3c1.1,2.9,0.9,6.1-0.4,9  c-0.8,1.9-2,3.5-3.4,4.9c-1.6,1.6-3.5,2.8-5.6,3.7c-2.4,1-5,1.5-7.6,1.4c-1.8,0-3.6-0.3-5.3-0.9c-1.4-0.5-2.6-1.3-3.6-2.4  c-0.9-0.9-1.6-2.1-2.1-3.3c-1.1-2.9-0.9-6.1,0.4-8.9c0.8-1.9,2-3.6,3.5-4.9c3.5-3.4,8.3-5.2,13.1-5.2  C214.8,20.3,216.6,20.6,218.3,21.2z M211.1,22.8c-1.1,0.9-2.1,2-2.9,3.2c-0.9,1.3-1.7,2.8-2.4,4.2c-0.7,1.6-1.4,3.1-1.9,4.6  c-0.5,1.3-0.9,2.7-1.2,4.1c-0.2,0.9-0.3,1.8-0.4,2.8c0,0.8,0.3,1.6,0.7,2.2c0.4,0.7,1.3,1,2.5,1c1.2,0,2.4-0.5,3.4-1.2  c1.1-0.9,2.1-2,2.9-3.2c0.9-1.3,1.7-2.8,2.4-4.2c0.7-1.6,1.3-3.1,1.8-4.6c0.5-1.3,0.8-2.7,1.1-4.1c0.2-0.9,0.3-1.8,0.4-2.8  c0-0.8-0.3-1.6-0.7-2.2c-0.4-0.7-1.3-1-2.5-1C213.2,21.5,212,22,211.1,22.8z M249.5,21c1.4,0.5,2.6,1.3,3.6,2.4  c0.9,0.9,1.7,2.1,2.1,3.3c1.1,2.9,1,6.2-0.3,9c-0.8,1.9-2,3.6-3.4,5c-1.6,1.6-3.5,2.8-5.6,3.7c-2.4,1-5,1.5-7.6,1.4  c-1.8,0-3.6-0.3-5.3-0.9c-1.4-0.5-2.6-1.3-3.6-2.4c-1-0.9-1.7-2.1-2.1-3.4c-0.4-1.2-0.6-2.5-0.7-3.7c0-1.8,0.3-3.6,1.1-5.2  c0.8-1.9,2-3.5,3.4-4.9c1.6-1.6,3.5-2.8,5.6-3.7c2.4-1,5-1.5,7.6-1.5C246,20.1,247.8,20.4,249.5,21z M242.3,22.6  c-1.1,0.9-2.1,2-2.9,3.2c-0.9,1.4-1.7,2.8-2.4,4.3c-0.7,1.6-1.3,3.1-1.8,4.6c-0.5,1.3-0.8,2.7-1.1,4.1c-0.2,0.9-0.3,1.8-0.3,2.8  c0,0.8,0.3,1.6,0.7,2.2c0.5,0.7,1.3,1,2.5,1c1.2,0,2.4-0.4,3.3-1.2c1.1-0.9,2.1-2,2.9-3.2c0.9-1.4,1.7-2.8,2.4-4.3  c0.7-1.6,1.3-3.1,1.8-4.6c0.5-1.3,0.8-2.7,1.1-4.1c0.2-0.9,0.3-1.8,0.3-2.8c0-0.8-0.3-1.6-0.7-2.2c-0.5-0.7-1.3-1-2.5-1  C244.4,21.4,243.2,21.8,242.3,22.6L242.3,22.6z M299.6,4.3l-12.9,33.4c-0.5,1.2-0.8,2.1-1.1,2.7c-0.2,0.3-0.3,0.7-0.3,1  c0,0.2,0.1,0.4,0.3,0.6c0.2,0.1,0.5,0.2,0.7,0.2c0.7-0.1,1.4-0.3,2-0.8c0.7-0.6,1.4-1.2,2.1-1.8c0.7-0.7,1.3-1.4,1.9-2.1  c0.6-0.7,1.1-1.2,1.4-1.5l1.7,0.9c-0.7,0.7-1.4,1.6-2.3,2.7c-0.9,1.1-1.9,2.1-3,3c-1.1,0.9-2.3,1.8-3.5,2.5c-1.2,0.7-2.6,1-4.1,1  c-1.6,0-2.8-0.2-3.5-0.7c-0.7-0.5-1.2-1.4-1.1-2.3c0-0.9,0.1-1.9,0.4-2.8c0.3-0.9,0.6-1.8,0.7-2.7h-0.1c-0.7,0.8-1.4,1.6-2.3,2.6  c-0.9,1-1.9,1.9-3,2.8c-1.1,0.9-2.3,1.6-3.6,2.2c-1.3,0.6-2.8,0.9-4.3,0.9c-2.9,0-5.1-0.6-6.5-1.8c-1.4-1.2-2.3-2.9-2.3-4.8  c0-1.4,0.3-2.8,0.8-4.1c0.6-1.5,1.4-3,2.5-4.3c1.1-1.5,2.4-2.9,3.8-4.1c1.5-1.3,3.1-2.5,4.8-3.5c1.8-1,3.6-1.8,5.5-2.4  C276,20.3,278,20,280,20c1.8,0,3.6,0.3,5.3,0.7l3.6-9.1c0.3-0.7,0.6-1.5,0.9-2.3c0.2-0.6,0.4-1.2,0.4-1.9c0-0.5-0.4-0.9-1.2-1.1  c-1.1-0.2-2.3-0.4-3.4-0.4l0.2-1.2L299.6,4.3z M272.1,41.7c1.2-0.8,2.3-1.8,3.3-2.9c1.1-1.2,2.2-2.5,3.2-3.9c1-1.4,1.9-2.8,2.7-4.2  c0.7-1.2,1.3-2.5,1.8-3.8c0.4-0.8,0.6-1.7,0.6-2.6c0-0.8-0.4-1.5-0.9-2.1c-0.6-0.7-1.4-1-2.7-0.9c-1.1,0.1-2.1,0.4-3,0.9  c-1.2,0.7-2.3,1.4-3.3,2.3c-1.2,1-2.2,2.2-3.2,3.4c-1,1.3-2,2.6-2.8,4c-0.8,1.3-1.4,2.7-1.9,4.1c-0.5,1.2-0.7,2.6-0.7,3.9  c0,0.8,0.4,1.5,0.9,2.1c0.6,0.7,1.4,1,2.7,1C270,42.8,271.1,42.4,272.1,41.7z"></path>
<path d="M300,42.8c0,2-1.6,3.5-3.5,3.5s-3.5-1.6-3.5-3.5c0-2,1.6-3.5,3.5-3.5l0,0C298.4,39.2,300,40.8,300,42.8z M293.4,42.8  c0,1.7,1.4,3.1,3.1,3.1c1.7,0,3.1-1.4,3.1-3.1c0-1.7-1.4-3.1-3.1-3.1l0,0C294.8,39.7,293.4,41,293.4,42.8  C293.4,42.7,293.4,42.7,293.4,42.8z M296.5,40.9c0.8,0,1.3,0.4,1.3,1c0,0.4-0.2,0.9-1,1c0.5,0.3,0.6,0.4,1.2,1.7h-0.6  c-0.7-1.4-0.8-1.6-1.7-1.6h-0.2v1.6H295v-3.7L296.5,40.9L296.5,40.9z M296.1,42.7c0.9,0,1.2-0.2,1.2-0.7c0-0.5-0.3-0.7-1.1-0.7h-0.7  v1.4H296.1z"></path>
<path class="st0" d="M194.2,1.3v4.3h4.6v1.1h-4.6V12H193V0.2h6v1.1H194.2z"></path>
<path class="st0" d="M205.3,12V0.2h1.2v11.9L205.3,12z"></path>
<path class="st0" d="M216.2,1.3V12H215V1.3h-2.7V0.2h6.6v1.1H216.2z"></path>
<path class="st0" d="M232.9,12l-7-10.4h0V12h-1.2V0.2h1.6l6.6,9.8h0V0.2h1.2v11.9L232.9,12L232.9,12z"></path>
<path class="st0" d="M240.9,12V0.2h6.5v1.1H242v4.2h5.1v1.1H242V11h5.3V12L240.9,12z"></path>
<path class="st0" d="M256.8,12.3c-2.1,0-3.6-1.4-3.6-3.5h1.2c0,1.3,1,2.4,2.4,2.5c1.3,0,2.4-1,2.5-2.4c0-1.6-1.4-2.1-2.7-2.5  c-1.7-0.5-3.1-1.1-3.1-3.1c0-1.9,1.5-3.2,3.4-3.2c1.8,0,3.2,1.4,3.3,3.1c0,0,0,0.1,0,0.1h-1.2c0-1.2-0.9-2.1-2.1-2.1  c-1.2,0-2.1,0.9-2.1,2c0,0,0,0,0,0c0,1.6,1.6,1.9,2.8,2.2c1.7,0.5,2.9,1.6,2.9,3.5C260.4,10.8,258.8,12.3,256.8,12.3z"></path>
<path class="st0" d="M269.3,12.3c-2.1,0-3.6-1.4-3.6-3.5h1.2c0,1.3,1,2.4,2.4,2.5c1.3,0,2.4-1,2.5-2.4l0,0c0-1.6-1.4-2.1-2.7-2.5  c-1.7-0.5-3.1-1.1-3.1-3.1c0-1.9,1.5-3.2,3.4-3.2c1.8,0,3.2,1.3,3.3,3.1c0,0,0,0.1,0,0.1h-1.2c0-1.2-0.9-2.1-2.1-2.1  c-1.2,0-2.1,0.9-2.1,2c0,0,0,0,0,0c0,1.6,1.6,1.9,2.8,2.2c1.7,0.5,2.9,1.6,2.9,3.5C272.8,10.7,271.2,12.3,269.3,12.3z"></path>
</svg>
