<?xml version="1.0" encoding="UTF-8"?>
<svg xmlns="http://www.w3.org/2000/svg" id="Layer_1" data-name="Layer 1" viewBox="0 0 300 95.14">
  <defs>
    <style>.cls-1{fill:#0895d3;}.cls-2{fill:#444;}</style>
  </defs>
  <path class="cls-1" d="M15.72,1.12a4.16,4.16,0,0,1,4.16,4.16V16.46a4.16,4.16,0,0,1-4.16,4.16H4.4A4.16,4.16,0,0,1,.24,16.46V5.28A4.16,4.16,0,0,1,4.4,1.12Z"></path>
  <path class="cls-1" d="M15.86,31.89H4.26A4.26,4.26,0,0,0,0,36.16v59H15.86a4.26,4.26,0,0,0,4.26-4.27V36.16a4.26,4.26,0,0,0-4.26-4.27"></path>
  <path class="cls-2" d="M83.53,0,54.31.67c-17.92.63-25,14-25,27.09l-.33,67.37H45.28a4.25,4.25,0,0,0,4.26-4.25l-.2-26.65A4.07,4.07,0,0,1,53.48,60H68.9a4.26,4.26,0,0,0,4.26-4.26V46.05a4.26,4.26,0,0,0-4.26-4.26H49.43V30.49c0-6.83,3.58-9.64,11.62-9.64l22.48-.06a4.26,4.26,0,0,0,4.25-4.26V4.26A4.26,4.26,0,0,0,83.53,0"></path>
  <path class="cls-2" d="M112.51.7h-11.6A4.25,4.25,0,0,0,96.66,5V95.12h15.85a4.26,4.26,0,0,0,4.26-4.27V5A4.25,4.25,0,0,0,112.51.7"></path>
  <path class="cls-2" d="M180.11,27.76c0-13-7.14-26.46-25.06-27.09L130,0a4.27,4.27,0,0,0-4.26,4.27V16.53A4.27,4.27,0,0,0,130,20.8l18.3.05c8,0,11.62,2.81,11.62,9.64l-.33,64.64h16.47a4.25,4.25,0,0,0,4.26-4.26Z"></path>
  <path class="cls-2" d="M210.4,0s-26.61.59-30.08.59c-3,.25-3.43,2.25-1.46,4,6.84,5.88,7.81,15.47,7.81,15.94l23.73.19a4.3,4.3,0,0,0,4.3-4.29V4.31A4.3,4.3,0,0,0,210.4,0"></path>
  <path class="cls-1" d="M298.2,43.66,283.93,29.71c-2-1.73-3.6-1-3.8,1.06,0,.23,0,1.11,0,1.3q0,.61-.06,1.23a27.68,27.68,0,0,1-3.17,10.87c-2.75,5.14-7.76,9.09-11.88,13.11-13.54,13.23-38.48,37.49-38.48,37.49h26.58a5.77,5.77,0,0,0,4-1.65L298.2,52.33a6.12,6.12,0,0,0,0-8.67"></path>
  <path class="cls-1" d="M267.75,13.81c-.43-.53-9.84-10.21-9.84-10.21a11.6,11.6,0,0,0-1.09-.94,6.93,6.93,0,0,0-4.36-1.49H226.57L268.8,42.42a.62.62,0,0,0,1-.11c5.05-8.23,6.06-18.69-2-28.5"></path>
</svg>
