<?xml version="1.0" encoding="UTF-8"?>
<svg xmlns="http://www.w3.org/2000/svg" xmlns:xlink="http://www.w3.org/1999/xlink" id="Layer_1" data-name="Layer 1" viewBox="0 0 300 132.5">
  <defs>
    <style>.cls-1{fill:#fff;}.cls-1,.cls-3{fill-rule:evenodd;}.cls-2{mask:url(#mask);}.cls-3{fill:#de2340;}</style>
    <mask id="mask" x="0" y="0" width="300" height="132.5" maskUnits="userSpaceOnUse">
      <g id="mask-2">
        <polygon id="path-1" class="cls-1" points="0 0 300 0 300 132.5 0 132.5 0 0"></polygon>
      </g>
    </mask>
  </defs>
  <g id="Artboard">
    <g id="Group-3">
      <g class="cls-2">
        <path id="Fill-1" class="cls-3" d="M35.79,3.11,32.27,19.85,80.62,3.11Zm251.7,115.35c0-1.62-1-2.57-3-2.57s-3.19.51-3.19,1.88c0,.84.63,1.36,2.39,1.92l2.62.84c2.8.92,5,2.25,5,5.46,0,4.71-4.68,6.48-9.06,6.48-3.73,0-8.11-1.47-8.11-5.93v-.78h4.86v.63c0,1.73,2,2.58,3.77,2.58,1.57,0,3.32-.56,3.32-2.28,0-1.33-.75-1.74-1.88-2.13l-4-1.29c-2.61-.85-4.12-1.88-4.12-4.86,0-4.5,4.75-6,8.43-6,4.17,0,7.9,1.18,7.82,6.08Zm-17.66,0c0-1.62-1-2.57-2.95-2.57s-3.19.51-3.19,1.88c0,.84.62,1.36,2.39,1.92l2.62.84c2.8.92,5,2.25,5,5.46,0,4.71-4.68,6.48-9.07,6.48-3.71,0-8.11-1.47-8.11-5.93v-.78h4.87v.63c0,1.73,2,2.58,3.76,2.58,1.59,0,3.32-.56,3.32-2.28,0-1.33-.74-1.74-1.88-2.13l-4-1.27c-2.61-.85-4.12-1.88-4.12-4.86,0-4.5,4.75-6.05,8.44-6.05,4.15,0,7.88,1.18,7.8,6.08Zm-17.95,1.92h-8.73c.77-2.13,2.25-4.06,5.2-4.06s3.53,2.13,3.53,4.06Zm-9.28,3.32h14a15.09,15.09,0,0,0,.3-3c0-5.53-3.58-8.33-8.89-8.33-6.49,0-10.5,5.68-10.5,11.71,0,5.42,3.4,8.32,8.51,8.32,5.48,0,8.22-2.28,9.88-6.55H250.7c-.77,1.21-1.81,2.62-3.9,2.62-2.84,0-4.2-1.52-4.2-3.73v-1.06Zm-22.92-10.8h5l-.59,2.66h.07a8.21,8.21,0,0,1,6.67-3.2c3.62,0,5.58,1.8,5.58,5.12a24.16,24.16,0,0,1-.56,3.28L233.5,132h-5.23l2.31-11.17a12.14,12.14,0,0,0,.34-2.32c0-1.14-1.29-1.95-2.51-1.95-3.19,0-4.79,2.65-5.31,5.32L221,132h-5.23l4-19.06Zm-5.46,0H218l-.82,3.5h-3.72l-1.92,9.48c-.06.29-.11.59-.15.88,0,1.36,1,1.4,1.77,1.4a16.79,16.79,0,0,0,1.88-.11l-.88,4a31.45,31.45,0,0,1-3.28.19c-2.43,0-5.05-.78-5-3.88a9.2,9.2,0,0,1,.26-1.8l2.13-10.21h-3.45l.81-3.5H209l1.18-5.79h5.23Zm-14.7,0h0l-4.05,19h5.28l4.05-19Zm5.86-3h0l1-4.31h-5.27l-.95,4.31Zm-17.06,6.45h-3.1l.75-3.5h3.13c1.06-4.87,1.91-7.45,7.44-7.45a20.71,20.71,0,0,1,3.43.29l-.81,3.76c-.55,0-1.14-.12-1.7-.12-2.58,0-2.53,1.33-3.09,3.55h3.73l-.75,3.5h-3.8L190.25,132H185Zm-22-3.5h5l-.78,3.42.08.08a7,7,0,0,1,6.56-4,12.6,12.6,0,0,1,1.62.11l-1.07,5.09a10.92,10.92,0,0,0-2.21-.33c-4,0-5.46,3-6.16,6.27L167.58,132h-5.24Zm-6.92,19h-5l.6-2.64h-.08a8.21,8.21,0,0,1-6.67,3.19c-3.61,0-5.56-1.8-5.56-5.12a22.68,22.68,0,0,1,.55-3.28l2.37-11.17h5.22l-2.32,11.17a13,13,0,0,0-.33,2.32c0,1.14,1.29,2,2.5,2,3.19,0,4.8-2.65,5.32-5.32l2.13-10.14h5.23Zm-28.72-3.42h0c-2.47,0-3.75-2-3.75-4.26,0-3.19,1.69-7.93,5.52-7.93,2.73,0,3.84,1.66,3.84,4.21,0,3.19-1.71,8-5.61,8Zm2-16.15h0c-6.79,0-11,5.42-11,11.87,0,5.46,3.43,8.22,8.74,8.22,6.92,0,11.09-5.32,11.09-12,0-5.49-3.64-8.07-8.88-8.07Zm-27.31-6.74h5.24l-2,9.47h.07a7.76,7.76,0,0,1,6.3-2.73c3.62,0,5.58,1.8,5.58,5.12a24.16,24.16,0,0,1-.56,3.28L117.68,132h-5.23l2.27-11.17a11.38,11.38,0,0,0,.33-2.32c0-1.14-1.28-1.95-2.5-1.95-3.19,0-4.78,2.65-5.32,5.32L105.15,132H99.93l5.48-26.31Zm-21.26,16H76.43l9.69-9.9h.06l-2.13,9.9Zm5,0h0l3.29-15.51h-5.1L72.17,121.23l-1,4.76h12l-1.3,6h5l1.29-6h3.42l.93-4.33Zm-35.42-6.22c.52-6.19,4.43-9.8,10.36-9.8,4.67,0,8.59,2.43,8.59,7.78,0,7.55-10.64,9.8-14.67,14H70.71L69.65,132H50.5c.44-6.44,5.32-9.06,10.39-11.75,2.5-1.45,6.49-3,6.49-6.45,0-2.59-1.77-3.62-4-3.62-2.83,0-4.63,2.48-4.74,5.32ZM294.11,17.2H293V14.9h1.47c.79,0,1.54.21,1.54,1.13,0,1.11-1,1.15-2,1.15ZM293,20.81h0V17.89h1.36l1.86,2.92h.94l-2-2.92a1.77,1.77,0,0,0,1.66-1.84c0-1.17-.66-1.82-2.12-1.82h-2.54v6.58Zm-3.55-3.29h0a4.82,4.82,0,1,1,0,.14v-.14Zm10.51,0h0a5.7,5.7,0,1,0-5.71,5.69A5.63,5.63,0,0,0,300,17.67v-.15ZM102,53.84H79c2-7.18,6.51-11.34,13.42-11.34,6.51,0,9.76,4,9.76,9.12a13.72,13.72,0,0,1-.25,2.22Zm24.32,1.68C126.28,34.23,108.19,26,93.21,26c-16.8,0-40.42,10.16-40.42,41.15,0,16.43,9.57,29.79,33.58,29.79,29.16,0,34.24-16.8,35.93-21.36H97.51C96.2,77.89,93,80.36,87.35,80.36c-8.07,0-10.53-6-10.53-13.16H125a42,42,0,0,0,1.29-11.7ZM261,26c-16.29,0-33.61,5.32-33.61,24.75,0,14.71,13.83,16.67,18.36,17.44,9.63,1.7,16.15,2.13,16.15,6.9,0,1.57-.9,6-7.81,6-2.86,0-5.22-.53-6.78-1.69a7.16,7.16,0,0,1-1.94-3.79H221.46c1.06,18,18,21.38,31.91,21.38,20.85,0,34.26-9.52,34.26-25.15,0-14.19-9.51-18.36-28.65-21-3.37-.4-5.84-1.44-5.84-5.09,0-4,3.75-5.46,7.27-5.46a9.63,9.63,0,0,1,6,1.69A4.54,4.54,0,0,1,268,45.17h23.13C291,29,274.63,26,261,26ZM211.53,43.55H225.2l3.63-15.88H214.89L221.43.88l-28.16,9.76-4.16,17h-22L173.67,0h-.54L145.57,9.58l-4.25,18.09H130.11l-3.68,15.88h11.49l-6,27.75c-.67,3.13-1.44,5.6-1.44,9.25,0,5,2.6,10.29,7,12.77,4.94,2.74,10.81,2.74,16.27,2.74a125.51,125.51,0,0,0,13.93-1.7l3.91-18.62c-2.08.12-4.26.39-8.51.39s-5.21-1.83-5.21-4a31.17,31.17,0,0,1,1.18-6.78l4.56-21.76h22l-6,27.75c-.65,3.13-1.43,5.6-1.43,9.25,0,5,2.6,10.29,7,12.77,4.93,2.74,10.8,2.74,16.26,2.74a127.93,127.93,0,0,0,13.93-1.7l3.91-18.62c-2.08.12-4.26.39-8.51.39s-5.21-1.83-5.21-4a31.16,31.16,0,0,1,1.17-6.78ZM30.44,27.67,18.84,82.11c-2.13,9.78-1.69,15.11-9.5,15.11a22.82,22.82,0,0,1-5.08-.52L0,116.76c4,.25,8,.39,12,.39,19.54,0,26.59-5.72,30.07-22.66L56.21,27.67Z"></path>
      </g>
    </g>
  </g>
</svg>
