<?xml version="1.0" encoding="UTF-8"?>
<svg xmlns="http://www.w3.org/2000/svg" id="Layer_1" data-name="Layer 1" viewBox="0 0 300 97.21">
  <path d="M0,24.66H24.82V38.88c3.95-9.64,10.59-16,22.28-15.49V49.47H45.05c-13,0-20.23,7.43-20.23,23.71v22H0Z"></path>
  <path d="M146.36,86.78v8.53H121.55V0h24.81V34.14c4.9-5.85,10.75-11.06,21.5-11.06,16.91,0,31.3,14.06,31.3,36.51v.32c0,22.91-14.54,36.82-31.3,36.82A26.36,26.36,0,0,1,146.36,86.78Zm28.3-26.72v-.31c0-9.33-6.32-16-14.54-16s-14.39,6.64-14.39,16v.31c0,9.33,6.32,16,14.39,16S174.66,69.55,174.66,60.06Z"></path>
  <path d="M275.18,0H300V95.31H275.18Z"></path>
  <path d="M118.7,61.8c0-20.7-11.22-38.72-35.72-38.72-20.86,0-35.56,16.28-35.56,37v.32c0,22,15.65,36.67,37.93,36.67,14.07,0,23.87-5.69,30.67-14.38L102.27,71.29c-5.22,4.9-9.8,7.27-15.81,7.27-7.75,0-13.28-4-15.33-11.7h47.26A28.63,28.63,0,0,0,118.7,61.8ZM83.14,41.41c6.32,0,10.75,4.43,12,11.38h-24C72.87,45.84,77.13,41.41,83.14,41.41Z"></path>
  <path d="M236.93,23.08c-24.34,0-35.72,17.86-35.72,38.72,0,1.58,0,3.48.16,5.06h47.26c-1.9,7.74-7.59,11.7-15.33,11.7-5.85,0-10.59-2.22-15.65-7.12L203.9,82.82c6.8,8.7,16.6,14.39,30.66,14.39,22.29,0,37.94-14.7,37.94-36.67v-.32C272.5,39.52,257.8,23.08,236.93,23.08Zm-.15,18.33c6.16,0,10.43,4.43,12,11.38h-24c1.27-6.95,5.69-11.38,12-11.38Z"></path>
</svg>
