<?xml version="1.0" encoding="UTF-8"?>
<svg xmlns="http://www.w3.org/2000/svg" id="Layer_1" data-name="Layer 1" viewBox="0 0 300 72.37">
  <defs>
    <style>.cls-1{fill:#d4292f;}.cls-2{fill:#6b7172;}</style>
  </defs>
  <path class="cls-1" d="M125.68,13.74h-19l1.54-5c.52-1.9-.41-3.35-2.06-3.35h-2.36a4.85,4.85,0,0,0-4.11,3.35L97.4,16.09c-.62,1.78.31,3.35,2.06,3.35h18.2c3.39,0,5.24,3,4.11,6.81l-3.49,11.17c-1.14,3.79-4.94,6.81-8.33,6.81H75.81c-3.5,0-5.35-3-4.11-6.81l2.16-6.93h19l-1.54,5c-.62,1.9.31,3.35,2,3.35h2.27a4.81,4.81,0,0,0,4.21-3.35l2.27-7.37c.61-1.79-.31-3.35-2.06-3.35H81.88c-3.5,0-5.35-3-4.22-6.82L81.15,6.81C82.39,3,86.09,0,89.59,0h34.14c3.39,0,5.24,3,4.11,6.81Z"></path>
  <path class="cls-1" d="M169.89,44.23H157.14c-3.49,0-5.34-3-4.11-6.81L162,8.72c.52-1.91-.3-3.36-2.05-3.36h-5.46L142.33,44.23h-19L137.09,0H177.5c3.39,0,5.24,3,4.12,6.81Z"></path>
  <path class="cls-1" d="M223.87,44.23h-40.3c-3.5,0-5.35-3-4.22-6.81l3.5-11.17c1.23-3.8,4.94-6.81,8.43-6.81h18.19a5,5,0,0,0,4.22-3.35L216,8.71c.51-1.79-.41-3.35-2.06-3.35h-2.37a4.6,4.6,0,0,0-4.11,3.35l-1.54,5H186.75l2.17-6.92C190.15,3,193.85,0,197.34,0h34.14c3.4,0,5.25,3,4.11,6.82L223.87,44.23M205.47,24.8a4.86,4.86,0,0,0-4.12,3.35l-2.26,7.37c-.62,1.9.31,3.35,2.06,3.35h5.34l4.43-14.07Z"></path>
  <path class="cls-1" d="M283.92,23.68c-1.23,3.8-4.93,6.81-8.43,6.81H254.2l-4.31,13.74h-19L244.64,0h40.41c3.39,0,5.25,3,4.11,6.81l-5.24,16.87M267.47,5.36H262L256,24.8h5.45a4.76,4.76,0,0,0,4.12-3.35l4-12.73c.51-1.79-.42-3.36-2.06-3.36"></path>
  <path class="cls-1" d="M294.65.64h-1.12c0,.6,0,.7,0,1.24,0,1.53,0,2.13,0,2.49l0,0c-.35,0-.37,0-.7,0l0,0c0-.85,0-1.7,0-2.55,0-.62,0-.94,0-1.2-.52,0-.59,0-1.13,0l0,0a3.31,3.31,0,0,1,0-.45l0,0h3l0,0a3.93,3.93,0,0,0,0,.46Z"></path>
  <path class="cls-1" d="M299.84.14c0,1.41.08,2.81.16,4.23l0,0h-.66l0,0c0-.68,0-.9,0-1.57V2.17c0-.43,0-1.36,0-1.59-.1.35-.19.67-.44,1.52l-.28.88c-.23.68-.3.92-.44,1.39l0,0h-.71l0,0-.09-.31c0-.18-.31-1.09-.37-1.28l-.25-.86c-.24-.87-.27-1-.35-1.35,0,.61,0,.74,0,1.35l0,1.09c0,.71,0,.87,0,1.35l0,0h-.59l0,0c0-.12,0-.25,0-.37.06-.72.08-1.45.13-2.17.06-1.08.06-1.15.06-1.68l0,0,.93,0,.05,0c.11.48.21.84.33,1.25l.67,2.46.76-2.54c.25-.79.26-.82.35-1.15l0,0,.91,0Z"></path>
  <path class="cls-2" d="M42.68,10.17c-.26,3.37,1.18,4.73,3.2,3S49.75,7.4,50,4,48.82-.69,46.8,1s-3.87,5.81-4.12,9.17"></path>
  <path class="cls-1" d="M49.93,20C51.38,14.67,61.26,8.82,76.69,2.1c-5.08.75-34,10.51-40.24,21.91-.73,1.34,0,2.53,2.46,3.15,16.7,4.29,21.66,11,2.57,14.25-20.79,3.51-51.36,9.46-38.36,31,2.19-8.17,10.3-14.44,10.3-14.44s7.34-7.65,34.29-14.72C50,42.62,52,42,54,41.39,59.78,39.17,60.28,32,52.91,28c-3.72-2-3.56-5.89-3-8"></path>
  <path class="cls-2" d="M61.79,68S39.51,52.59,51,43.57C49.92,54.31,61.79,68,61.79,68"></path>
  <path class="cls-2" d="M83.84,51.55H76.93c-.69,0-1.56.83-1.83,1.77L73.32,59h6.6l-.86,2.83h-6.6l-3.18,10.3h-8l6.09-19.82c.64-2,2.3-3.61,3.76-3.61h13.6Z"></path>
  <polygon class="cls-2" points="87.93 72.14 79.94 72.14 87.16 48.71 95.15 48.71 87.93 72.14"></polygon>
  <polygon class="cls-2" points="114.36 51.55 109.78 51.55 103.43 72.14 95.44 72.14 101.8 51.55 97.18 51.55 98.09 48.71 115.22 48.71 114.36 51.55"></polygon>
  <path class="cls-2" d="M130.45,72.14h-8l5.81-18.82c.28-1,0-1.77-.76-1.77h-2.28l-6.36,20.59h-8l7.22-23.43h17c1.43,0,2.11,1.6,1.51,3.61Z"></path>
  <path class="cls-2" d="M155.83,51.55h-6.91c-.69,0-1.56.83-1.83,1.77L145.32,59h6.6l-.87,2.83h-6.6l-1.72,5.68c-.33,1,0,1.78.75,1.78h6.9l-.9,2.84H135.92c-1.46,0-2.14-1.61-1.5-3.62l5-16.2c.65-2,2.3-3.61,3.76-3.61h13.6Z"></path>
  <path class="cls-2" d="M175.38,51.55h-8c-.73,0-1.57.83-1.88,1.77l-1.19,3.91c-.27,1,.06,1.78.75,1.78h6.3c1.43,0,2.1,1.59,1.51,3.6l-1.83,5.91c-.64,2-2.29,3.62-3.76,3.62H152.07l.9-2.84h8.55a2.28,2.28,0,0,0,1.83-1.78l1.23-3.9c.28-.95-.06-1.78-.79-1.78h-6.26c-1.43,0-2.1-1.6-1.51-3.6l1.83-5.92c.6-2,2.3-3.61,3.73-3.61h14.71Z"></path>
  <path class="cls-2" d="M195.31,51.55h-8c-.74,0-1.56.83-1.88,1.77l-1.19,3.91c-.27,1,.06,1.78.76,1.78h6.29c1.43,0,2.11,1.59,1.51,3.6L191,68.52c-.64,2-2.29,3.62-3.76,3.62H172l.9-2.84h8.55a2.29,2.29,0,0,0,1.84-1.78l1.23-3.9c.27-.95-.07-1.78-.8-1.78h-6.26c-1.42,0-2.1-1.6-1.51-3.6l1.83-5.92c.6-2,2.3-3.61,3.72-3.61h14.72Z"></path>
  <path class="cls-1" d="M201.58,61a1.87,1.87,0,0,1-1.51,1.34h-3.2c-.59,0-.87-.58-.61-1.34l.65-2.09a1.83,1.83,0,0,1,1.51-1.35h3.19c.59,0,.87.58.64,1.35Z"></path>
  <path class="cls-1" d="M224.33,57.47a6.89,6.89,0,0,1-3.75,4l-8.91,4a3,3,0,0,0-1.84,1.84l-.56,1.78h11.39l-.92,2.83H201l2.44-7.69c.61-1.95,2.14-2.85,3.66-3.55l8.55-3.85A3,3,0,0,0,217.44,55l.61-1.9c.28-1,0-1.77-.68-1.77h-9.29l.9-2.84h15.7c1.42,0,2,1.59,1.38,3.61Z"></path>
  <path class="cls-1" d="M241.41,71.9h-7.66l2.33-7.27h-9.62c-.84,0-1.22-.94-.83-2.21l4.44-13.94h7.68L233.8,60.9c-.16.46,0,.89.34.89H237l4.22-13.31h7.66Z"></path>
  <polygon class="cls-1" points="255.62 62.66 247.31 62.66 248.3 59.11 256.65 59.11 255.62 62.66"></polygon>
  <path class="cls-1" d="M274.93,52.14,263.12,71.9h-7.93L266.7,53c.47-.71.43-1.65-.24-1.65H258l.89-2.84h15.47c1,0,1.48,1.18,1,2.72a4.53,4.53,0,0,1-.46.94"></path>
</svg>
