<?xml version="1.0" encoding="UTF-8"?>
<svg xmlns="http://www.w3.org/2000/svg" xmlns:xlink="http://www.w3.org/1999/xlink" id="Layer_1" data-name="Layer 1" viewBox="0 0 299.96 99.74">
  <defs>
    <style>.cls-1{fill:none;}.cls-2{clip-path:url(#clip-path);}.cls-3{clip-path:url(#clip-path-2);}.cls-4{fill:#febe18;}.cls-5{fill:#0088ce;}</style>
    <clipPath id="clip-path" transform="translate(0 -0.02)">
      <rect class="cls-1" width="300" height="99.72"></rect>
    </clipPath>
    <clipPath id="clip-path-2" transform="translate(0 -0.02)">
      <rect class="cls-1" width="300" height="99.72"></rect>
    </clipPath>
  </defs>
  <g class="cls-2">
    <path d="M137.23,94.12l-2.67-6.45-2.8,6.45Zm1,2.36-.57-1.43h-6.29l-1.84,4.28h-1.07l6.47-15h.77l5,12.18a5.13,5.13,0,0,0,1.06,1.74,2.27,2.27,0,0,0,1.42.61v.5a3.41,3.41,0,0,1-1,.11,4.08,4.08,0,0,1-4-3m13.18,1.42q-1.37-1.64-1.36-5.1V87.1a3.53,3.53,0,0,0-.31-1.69,1.27,1.27,0,0,0-1.22-.58h-.4v-.52h2.18a2.77,2.77,0,0,1,1.25.22,1.34,1.34,0,0,1,.62.82,6.33,6.33,0,0,1,.18,1.73V93.5a6.49,6.49,0,0,0,.94,3.82,3.41,3.41,0,0,0,3,1.31,4.22,4.22,0,0,0,3.54-1.35,7.4,7.4,0,0,0,1-4.44V84.32h1v8.52a11.59,11.59,0,0,1-.53,3.78,4,4,0,0,1-1.8,2.21,7.06,7.06,0,0,1-3.55.77c-2.12,0-3.65-.55-4.54-1.64m22,1.44a5.45,5.45,0,0,1-2-1,1.83,1.83,0,0,1-.76-1.44V94.48h.48a5.47,5.47,0,0,0,1.48,3.3,4.36,4.36,0,0,0,3.08,1,3.55,3.55,0,0,0,2.11-.61,1.89,1.89,0,0,0,.85-1.69,2.52,2.52,0,0,0-.58-1.65,6.69,6.69,0,0,0-1.88-1.45l-2.81-1.66A6.72,6.72,0,0,1,171.26,90a3.66,3.66,0,0,1-.62-2.18A3.48,3.48,0,0,1,171.91,85a5,5,0,0,1,3.33-1.06,8.9,8.9,0,0,1,2.36.32,5,5,0,0,1,1.89,1,1.87,1.87,0,0,1,.74,1.45v2.5h-.48a5.61,5.61,0,0,0-1.46-3.27,4.21,4.21,0,0,0-3-1,2.77,2.77,0,0,0-1.87.63,2.06,2.06,0,0,0-.77,1.64,2.14,2.14,0,0,0,.57,1.52,10,10,0,0,0,1.91,1.42l2.8,1.66a8.05,8.05,0,0,1,2.21,1.74,3.24,3.24,0,0,1,.66,2.06,3.84,3.84,0,0,1-1.33,3.08,5.46,5.46,0,0,1-3.66,1.14,9,9,0,0,1-2.47-.34m20-14.17h-1.94c-1.86,0-2.8.89-2.8,2.67h-.5V86.14c0-1.22.65-1.82,1.94-1.82h10.61v.93h-5v14.1h-2.28Zm19.68,6.35a4.06,4.06,0,0,0,1.57-.33A3.19,3.19,0,0,0,216,90.21a3.34,3.34,0,0,0,0-3.64,3.28,3.28,0,0,0-1.36-1.07,4,4,0,0,0-1.54-.34,6,6,0,0,0-1.57.23V91.6Zm4.15,7.27a9.35,9.35,0,0,1-2-2.58l-2.28-3.84h-1.41v6.92h-2.3V87.14a3.59,3.59,0,0,0-.32-1.72,1.33,1.33,0,0,0-1.27-.58h-.39v-.52h6a9.25,9.25,0,0,1,4,.85A3.81,3.81,0,0,1,218,91a6.12,6.12,0,0,1-2.62,1.27l2.39,4a7.46,7.46,0,0,0,1.52,1.93,3,3,0,0,0,1.49.65v.48a2.92,2.92,0,0,1-.6.16,5.69,5.69,0,0,1-.83.07,3.32,3.32,0,0,1-2.14-.74m18.4-4.69-2.67-6.44-2.8,6.44Zm1,2.37-.57-1.44h-6.29l-1.84,4.29h-1.07l6.47-15h.77l5,12.19a5.47,5.47,0,0,0,1.05,1.74,2.37,2.37,0,0,0,1.43.6v.5a3.46,3.46,0,0,1-1,.12,4.09,4.09,0,0,1-4-3m12.6-9.4a3.62,3.62,0,0,0-.32-1.72,1.35,1.35,0,0,0-1.27-.58h-.39V84.3h2.23a2.73,2.73,0,0,1,1.25.23,1.28,1.28,0,0,1,.62.82,6.16,6.16,0,0,1,.19,1.73v11.3h8v.93H249.22Zm18.79,12a1.28,1.28,0,0,1-.62-.82,6.23,6.23,0,0,1-.18-1.73V84.34h2.3V96.57a3.62,3.62,0,0,0,.32,1.72,1.37,1.37,0,0,0,1.28.58h.38v.52h-2.23a2.75,2.75,0,0,1-1.25-.23m18.93-5-2.67-6.44-2.8,6.44Zm1,2.37-.57-1.43H281.1l-1.84,4.28h-1.07l6.47-15h.77l5,12.19a5.46,5.46,0,0,0,1.06,1.74,2.34,2.34,0,0,0,1.43.6v.51a3.93,3.93,0,0,1-1,.11,4.08,4.08,0,0,1-4-3M171.78,2H169a1.53,1.53,0,0,0-1.53,1.54V38.91c0,8.66-1.54,15-4.62,19.06s-7.08,6-13.82,6q-7.83,0-11.75-5.9t-4-16.2L133.16,15a40.3,40.3,0,0,0-.4-6.14,9.31,9.31,0,0,0-1.44-4,5.73,5.73,0,0,0-2.77-2.13,12.5,12.5,0,0,0-4.31-.65h-9.38a1.53,1.53,0,0,0-.18,3.05c2.19.25,3.64,1.13,4.33,2.65A17.59,17.59,0,0,1,120.25,15V39q0,29.53,26.77,29.55a33.38,33.38,0,0,0,12.24-2,19.68,19.68,0,0,0,8.13-5.8,23.5,23.5,0,0,0,4.51-9.27,50.58,50.58,0,0,0,1.39-12.51V3.59a1.53,1.53,0,0,0-1.54-1.53" transform="translate(0 -0.02)"></path>
  </g>
  <g class="cls-3">
    <path d="M218.93,33.6l-12.2-7.23-4.26-2.7A19.52,19.52,0,0,1,199.25,21a10.94,10.94,0,0,1-2.08-3,8.75,8.75,0,0,1-.75-3.71,8.74,8.74,0,0,1,3.08-7c2.05-1.72,4.88-2.58,8.42-2.58,5,0,9.05,1.46,12.12,4.36q4.32,4.08,6.07,13.34a1.62,1.62,0,0,0,1.58,1.34h0A1.62,1.62,0,0,0,229.31,22v-10a7.37,7.37,0,0,0-2-5,16.31,16.31,0,0,0-5.15-3.76A28.61,28.61,0,0,0,215,1a41.37,41.37,0,0,0-8.08-.79c-6.81,0-12.21,1.54-16.21,4.55a14.74,14.74,0,0,0-6,12.4,16.86,16.86,0,0,0,2.77,9.61c1.86,2.78,5,5.49,9.52,8.13l12.19,7.34a37.07,37.07,0,0,1,7.49,5.69A9.84,9.84,0,0,1,219.4,55a8.3,8.3,0,0,1-3.4,7.19c-2.24,1.62-5.27,2.43-9,2.43q-8.28,0-13.05-4.36c-3-2.7-5-7.16-6.14-13.33a1.61,1.61,0,0,0-3.19.27v10a7.33,7.33,0,0,0,2,5A16.49,16.49,0,0,0,191.74,66a29,29,0,0,0,7.19,2.3,43.31,43.31,0,0,0,8.08.8q12,0,18.44-5a16.07,16.07,0,0,0,6.44-13.48,14.14,14.14,0,0,0-3.12-9.27c-2.08-2.54-5.39-5.14-9.86-7.78m80.42,19-.79-.62a1.64,1.64,0,0,0-2.3.28l-.11.16a25.3,25.3,0,0,1-8.53,8.94,23.54,23.54,0,0,1-12.69,3.62,19.47,19.47,0,0,1-10.06-2.42,20.05,20.05,0,0,1-6.74-6.5,29.19,29.19,0,0,1-3.82-9.36,49.86,49.86,0,0,1-1.19-11,57.11,57.11,0,0,1,1.69-15,25.89,25.89,0,0,1,4.66-9.61,16.18,16.18,0,0,1,6.93-5.11,24.16,24.16,0,0,1,8.53-1.48c5.49,0,9.89,1.6,13.24,4.8q4.64,4.47,6.6,12.55a1.65,1.65,0,0,0,3.25-.39l-.29-6.75A12.09,12.09,0,0,0,295.43,8,23,23,0,0,0,287,2.44c-3.8-1.6-8.81-2.42-15-2.42a30.66,30.66,0,0,0-13,2.77,31.9,31.9,0,0,0-10.36,7.59,35.33,35.33,0,0,0-6.84,11.29,39.09,39.09,0,0,0-2.48,14A39.24,39.24,0,0,0,241.41,49a31,31,0,0,0,6.34,10.71A28.65,28.65,0,0,0,258,66.81a35.78,35.78,0,0,0,13.93,2.58q10.4,0,17.13-3.85a30.15,30.15,0,0,0,10.65-10.83,1.64,1.64,0,0,0-.41-2.15" transform="translate(0 -0.02)"></path>
  </g>
  <g class="cls-2">
    <path class="cls-4" d="M56.05,64.85V3h.54L67.44,31,89.83,14.38,81.64,42.85l29,.54L90.08,61.12l22,7.22H41.46Z" transform="translate(0 -0.02)"></path>
    <path class="cls-5" d="M0,3V68.4l25.16-7.23L1.49,43.4l29.94-.49L22.26,14.38,45.34,31,56.07,3.64V3Z" transform="translate(0 -0.02)"></path>
  </g>
</svg>
